<svg xmlns="http://www.w3.org/2000/svg" fill="none" viewBox="0 0 621 116">
  <path fill="#000" d="M121.864 75.34a9.545 9.545 0 0 1-5.148-1.465c-1.557-.977-2.807-2.46-3.75-4.449-.932-1.989-1.398-4.494-1.398-7.517 0-3.159.489-5.727 1.466-7.704.989-1.978 2.261-3.427 3.818-4.347 1.568-.92 3.216-1.38 4.943-1.38 1.296 0 2.432.227 3.41.681.977.443 1.795 1.04 2.454 1.79a7.904 7.904 0 0 1 1.5 2.437h.136V40.091h9.41V75h-9.341v-4.296h-.205a7.501 7.501 0 0 1-1.568 2.387c-.671.693-1.489 1.244-2.455 1.653-.954.398-2.045.597-3.272.597Zm3.477-7.226c.864 0 1.602-.25 2.216-.75.625-.512 1.102-1.228 1.432-2.148.341-.932.511-2.034.511-3.307 0-1.295-.17-2.403-.511-3.324-.33-.932-.807-1.642-1.432-2.13-.614-.5-1.352-.75-2.216-.75-.864 0-1.602.25-2.216.75-.602.488-1.068 1.198-1.398 2.13-.318.92-.477 2.029-.477 3.324 0 1.296.159 2.41.477 3.341.33.92.796 1.63 1.398 2.13.614.49 1.352.734 2.216.734Zm17.983-19.296h9.409v27.068c0 2.296-.483 4.091-1.449 5.387-.954 1.295-2.295 2.21-4.023 2.744-1.727.534-3.744.801-6.051.801-.341 0-.653-.005-.937-.017-.296-.011-.62-.028-.972-.051v-6.954c.227.022.426.04.597.05.159.012.324.018.494.018 1.125 0 1.892-.177 2.301-.529.421-.34.631-.892.631-1.653V48.818Zm4.704-2.727c-1.272 0-2.363-.42-3.272-1.261-.909-.841-1.364-1.853-1.364-3.035 0-1.181.455-2.193 1.364-3.034.909-.84 2-1.261 3.272-1.261 1.285 0 2.375.42 3.273 1.261.909.841 1.364 1.853 1.364 3.034 0 1.182-.455 2.194-1.364 3.035-.898.84-1.988 1.26-3.273 1.26Zm16.794 29.318c-1.67 0-3.147-.273-4.431-.818-1.273-.557-2.273-1.398-3-2.523-.728-1.125-1.091-2.557-1.091-4.295 0-1.432.244-2.654.733-3.665a6.593 6.593 0 0 1 2.045-2.506c.875-.647 1.892-1.142 3.051-1.483a18.512 18.512 0 0 1 3.784-.664c1.466-.114 2.642-.25 3.529-.41.897-.17 1.545-.403 1.943-.698.398-.307.597-.71.597-1.21v-.069c0-.682-.262-1.204-.785-1.568-.522-.364-1.193-.545-2.011-.545-.898 0-1.631.198-2.199.596-.557.386-.892.983-1.005 1.79h-8.66a8.933 8.933 0 0 1 1.517-4.398c.91-1.352 2.233-2.432 3.972-3.238 1.739-.819 3.909-1.228 6.511-1.228 1.875 0 3.557.222 5.046.665 1.489.432 2.756 1.04 3.801 1.824 1.045.773 1.841 1.682 2.386 2.727a7.005 7.005 0 0 1 .836 3.375V75h-8.796v-3.682h-.204c-.523.978-1.159 1.767-1.909 2.37a7.032 7.032 0 0 1-2.54 1.312c-.943.273-1.983.41-3.12.41Zm3.069-5.932c.716 0 1.386-.148 2.011-.443a3.88 3.88 0 0 0 1.551-1.278c.398-.557.597-1.233.597-2.029v-2.182c-.25.103-.517.2-.801.29a16.284 16.284 0 0 1-1.875.477c-.341.069-.699.131-1.074.188-.728.114-1.324.301-1.79.563-.455.25-.796.562-1.023.937a2.357 2.357 0 0 0-.324 1.227c0 .727.256 1.284.767 1.67.512.387 1.165.58 1.961.58Zm27.404-9.204V75h-9.409V48.818h8.932v4.977h.273c.568-1.659 1.568-2.96 3-3.903 1.443-.943 3.125-1.415 5.045-1.415 1.853 0 3.461.426 4.824 1.279 1.375.84 2.438 2 3.188 3.477.761 1.477 1.136 3.165 1.125 5.063V75h-9.409V60.273c.011-1.296-.319-2.313-.989-3.051-.659-.739-1.58-1.108-2.761-1.108-.773 0-1.449.17-2.029.511a3.28 3.28 0 0 0-1.312 1.432c-.307.613-.466 1.352-.478 2.216Zm34.236 25.09c-2.625 0-4.875-.374-6.75-1.124-1.863-.739-3.312-1.762-4.346-3.069-1.023-1.295-1.597-2.784-1.722-4.466h9.068c.091.557.318 1.006.682 1.347.364.341.83.585 1.398.733.579.16 1.227.239 1.943.239 1.216 0 2.222-.296 3.017-.887.807-.59 1.21-1.659 1.21-3.204V70.5h-.272a5.739 5.739 0 0 1-1.569 2.267c-.704.614-1.551 1.085-2.539 1.415-.989.318-2.074.477-3.256.477-1.864 0-3.58-.432-5.148-1.295-1.557-.864-2.807-2.233-3.75-4.108-.932-1.875-1.398-4.324-1.398-7.347 0-3.159.489-5.727 1.466-7.704.989-1.978 2.262-3.427 3.819-4.347 1.568-.92 3.215-1.38 4.943-1.38 1.295 0 2.432.227 3.409.681.977.443 1.795 1.04 2.454 1.79a7.904 7.904 0 0 1 1.5 2.437h.205v-4.568h9.409v26.114c0 2.216-.574 4.096-1.722 5.642-1.136 1.557-2.738 2.744-4.806 3.562-2.069.819-4.483 1.228-7.245 1.228Zm.341-17.386c.864 0 1.602-.238 2.216-.716.625-.488 1.102-1.181 1.432-2.08.341-.908.511-2 .511-3.272 0-1.295-.17-2.403-.511-3.324-.33-.932-.807-1.642-1.432-2.13-.614-.5-1.352-.75-2.216-.75-.863 0-1.602.25-2.216.75-.602.488-1.068 1.198-1.397 2.13-.319.92-.478 2.029-.478 3.324 0 1.296.159 2.398.478 3.307.329.898.795 1.585 1.397 2.062.614.466 1.353.7 2.216.7Zm30.831 7.5c-2.841 0-5.273-.562-7.295-1.687-2.023-1.137-3.574-2.716-4.654-4.739-1.079-2.034-1.619-4.392-1.619-7.074 0-2.681.54-5.034 1.619-7.056a11.473 11.473 0 0 1 4.654-4.74c2.022-1.136 4.454-1.704 7.295-1.704s5.273.569 7.296 1.705a11.476 11.476 0 0 1 4.653 4.738c1.08 2.023 1.619 4.375 1.619 7.057 0 2.682-.539 5.04-1.619 7.074-1.08 2.023-2.631 3.602-4.653 4.739-2.023 1.125-4.455 1.687-7.296 1.687Zm.068-6.954c.796 0 1.483-.267 2.063-.801.579-.534 1.028-1.296 1.346-2.284.319-.99.478-2.165.478-3.529 0-1.375-.159-2.551-.478-3.528-.318-.989-.767-1.75-1.346-2.284a2.942 2.942 0 0 0-2.063-.802c-.841 0-1.562.267-2.164.802-.603.534-1.063 1.295-1.381 2.284-.318.977-.477 2.153-.477 3.528 0 1.364.159 2.54.477 3.529.318.988.778 1.75 1.381 2.284.602.534 1.323.8 2.164.8Zm34.5-10.977v7.09h-16.363v-7.09h16.363Zm18.213 17.931c-2.841 0-5.272-.562-7.295-1.687-2.023-1.137-3.574-2.716-4.653-4.739-1.08-2.034-1.62-4.392-1.62-7.074 0-2.681.54-5.034 1.62-7.056a11.464 11.464 0 0 1 4.653-4.74c2.023-1.136 4.454-1.704 7.295-1.704 2.569 0 4.79.466 6.665 1.398 1.887.92 3.347 2.227 4.381 3.92 1.034 1.682 1.557 3.66 1.568 5.932h-8.727c-.125-1.375-.523-2.42-1.193-3.136-.66-.727-1.512-1.091-2.557-1.091-.818 0-1.534.239-2.148.716-.614.466-1.091 1.176-1.432 2.13-.341.944-.511 2.131-.511 3.563 0 1.432.17 2.625.511 3.58.341.943.818 1.653 1.432 2.13.614.466 1.33.7 2.148.7.693 0 1.307-.16 1.841-.478.534-.33.966-.807 1.295-1.432.341-.636.546-1.409.614-2.318h8.727c-.034 2.307-.562 4.318-1.585 6.034-1.023 1.704-2.472 3.023-4.347 3.954-1.863.932-4.091 1.398-6.682 1.398Zm29.11 0c-2.841 0-5.273-.562-7.296-1.687-2.022-1.137-3.574-2.716-4.653-4.739-1.08-2.034-1.619-4.392-1.619-7.074 0-2.681.539-5.034 1.619-7.056 1.079-2.035 2.631-3.614 4.653-4.74 2.023-1.136 4.455-1.704 7.296-1.704s5.272.569 7.295 1.705a11.473 11.473 0 0 1 4.654 4.738c1.079 2.023 1.619 4.375 1.619 7.057 0 2.682-.54 5.04-1.619 7.074-1.08 2.023-2.631 3.602-4.654 4.739-2.023 1.125-4.454 1.687-7.295 1.687Zm.068-6.954a2.94 2.94 0 0 0 2.062-.801c.58-.534 1.029-1.296 1.347-2.284.318-.99.477-2.165.477-3.529 0-1.375-.159-2.551-.477-3.528-.318-.989-.767-1.75-1.347-2.284a2.94 2.94 0 0 0-2.062-.802c-.841 0-1.563.267-2.165.802-.602.534-1.062 1.295-1.381 2.284-.318.977-.477 2.153-.477 3.528 0 1.364.159 2.54.477 3.529.319.988.779 1.75 1.381 2.284.602.534 1.324.8 2.165.8ZM359.98 75V48.818h8.932v4.977h.273c.545-1.636 1.477-2.931 2.795-3.886 1.318-.954 2.886-1.432 4.705-1.432 1.841 0 3.426.489 4.755 1.466 1.33.966 2.131 2.25 2.404 3.852h.272c.444-1.602 1.387-2.886 2.83-3.852 1.443-.977 3.136-1.466 5.08-1.466 2.511 0 4.545.807 6.102 2.42 1.568 1.614 2.352 3.762 2.352 6.444V75h-9.409V59.727c0-1.147-.29-2.045-.869-2.693-.58-.659-1.358-.989-2.336-.989-.965 0-1.732.33-2.301.99-.556.647-.835 1.545-.835 2.692V75h-9V59.727c0-1.147-.29-2.045-.869-2.693-.58-.659-1.358-.989-2.335-.989-.648 0-1.205.148-1.671.444-.466.295-.829.721-1.091 1.278-.25.545-.375 1.199-.375 1.96V75h-9.409Zm45.141 9.818v-36h9.341v4.568h.204a7.904 7.904 0 0 1 1.5-2.437c.659-.75 1.477-1.347 2.455-1.79.977-.454 2.113-.682 3.409-.682 1.727 0 3.369.46 4.926 1.381 1.568.92 2.841 2.37 3.818 4.347.989 1.977 1.483 4.545 1.483 7.704 0 3.023-.471 5.529-1.415 7.517-.931 1.989-2.181 3.472-3.75 4.449a9.46 9.46 0 0 1-5.13 1.466c-1.228 0-2.324-.199-3.29-.597a7.594 7.594 0 0 1-2.455-1.653 7.658 7.658 0 0 1-1.551-2.386h-.136v14.113h-9.409Zm9.204-22.909c0 1.273.165 2.375.495 3.307.341.92.818 1.636 1.431 2.148.625.5 1.37.75 2.233.75.864 0 1.597-.245 2.199-.733.614-.5 1.08-1.21 1.398-2.131.33-.932.494-2.045.494-3.34 0-1.296-.164-2.404-.494-3.325-.318-.932-.784-1.642-1.398-2.13-.602-.5-1.335-.75-2.199-.75-.863 0-1.608.25-2.233.75-.613.488-1.09 1.198-1.431 2.13-.33.92-.495 2.029-.495 3.324Zm34.487 13.568c-2.84 0-5.272-.562-7.295-1.687-2.023-1.137-3.574-2.716-4.653-4.739-1.08-2.034-1.62-4.392-1.62-7.074 0-2.681.54-5.034 1.62-7.056a11.464 11.464 0 0 1 4.653-4.74c2.023-1.136 4.455-1.704 7.295-1.704 2.841 0 5.273.569 7.296 1.705a11.464 11.464 0 0 1 4.653 4.738c1.08 2.023 1.62 4.375 1.62 7.057 0 2.682-.54 5.04-1.62 7.074-1.079 2.023-2.63 3.602-4.653 4.739-2.023 1.125-4.455 1.687-7.296 1.687Zm.069-6.954a2.94 2.94 0 0 0 2.062-.801c.58-.534 1.029-1.296 1.347-2.284.318-.99.477-2.165.477-3.529 0-1.375-.159-2.551-.477-3.528-.318-.989-.767-1.75-1.347-2.284a2.94 2.94 0 0 0-2.062-.802c-.841 0-1.563.267-2.165.802-.602.534-1.063 1.295-1.381 2.284-.318.977-.477 2.153-.477 3.528 0 1.364.159 2.54.477 3.529.318.988.779 1.75 1.381 2.284.602.534 1.324.8 2.165.8Zm26.727-8.25V75h-9.409V48.818h8.932v4.977h.272c.569-1.659 1.569-2.96 3-3.903 1.444-.943 3.125-1.415 5.046-1.415 1.852 0 3.46.426 4.824 1.279 1.375.84 2.437 2 3.187 3.477.762 1.477 1.137 3.165 1.125 5.063V75h-9.409V60.273c.012-1.296-.318-2.313-.988-3.051-.66-.739-1.58-1.108-2.762-1.108-.773 0-1.449.17-2.028.511a3.281 3.281 0 0 0-1.313 1.432c-.307.613-.466 1.352-.477 2.216Zm34.168 15.204c-2.796 0-5.205-.534-7.228-1.602a11.228 11.228 0 0 1-4.653-4.636c-1.08-2.023-1.619-4.444-1.619-7.262 0-2.704.545-5.068 1.636-7.09a11.698 11.698 0 0 1 4.619-4.722c1.989-1.125 4.335-1.688 7.04-1.688 1.977 0 3.767.307 5.369.92 1.603.614 2.972 1.506 4.108 2.677 1.137 1.159 2.012 2.568 2.625 4.227.614 1.66.921 3.529.921 5.608v2.182h-23.387v-5.182h14.728c-.012-.75-.205-1.409-.58-1.977a3.695 3.695 0 0 0-1.483-1.347c-.613-.33-1.312-.494-2.096-.494a4.49 4.49 0 0 0-2.097.494 3.961 3.961 0 0 0-1.534 1.33c-.375.568-.574 1.233-.597 1.994V64.5c0 .84.176 1.59.529 2.25.352.66.858 1.176 1.517 1.551.659.375 1.454.563 2.386.563.648 0 1.239-.091 1.773-.273a4.001 4.001 0 0 0 1.398-.784c.386-.353.67-.773.852-1.261h8.591c-.296 1.818-.995 3.397-2.097 4.738-1.102 1.33-2.562 2.364-4.381 3.102-1.806.728-3.92 1.091-6.34 1.091Zm26.066-15.204V75h-9.409V48.818h8.932v4.977h.273c.568-1.659 1.568-2.96 3-3.903 1.443-.943 3.125-1.415 5.045-1.415 1.853 0 3.46.426 4.824 1.279 1.375.84 2.438 2 3.188 3.477.761 1.477 1.136 3.165 1.125 5.063V75h-9.409V60.273c.011-1.296-.319-2.313-.989-3.051-.659-.739-1.58-1.108-2.761-1.108-.773 0-1.449.17-2.029.511a3.273 3.273 0 0 0-1.312 1.432c-.307.613-.466 1.352-.478 2.216Zm37.236-11.455v6.818h-17.25v-6.818h17.25Zm-13.909-6.273h9.409V66.58c0 .364.063.671.188.921.125.239.318.42.579.546.262.113.597.17 1.006.17.284 0 .613-.034.988-.102.387-.069.671-.125.853-.17l1.363 6.613a32.73 32.73 0 0 1-1.806.46c-.773.182-1.694.301-2.762.358-2.159.114-3.971-.108-5.437-.665-1.466-.568-2.568-1.46-3.307-2.676-.739-1.216-1.097-2.739-1.074-4.568v-24.92Zm41.399 14.796h-8.659a2.383 2.383 0 0 0-.562-1.38 3.159 3.159 0 0 0-1.279-.887 4.337 4.337 0 0 0-1.704-.324c-.807 0-1.5.148-2.08.443-.579.296-.864.716-.852 1.262-.012.386.153.744.494 1.073.352.33 1.029.586 2.029.767l5.318.955c2.682.489 4.676 1.313 5.983 2.472 1.318 1.147 1.983 2.687 1.994 4.619-.011 1.864-.568 3.483-1.67 4.858-1.091 1.364-2.586 2.42-4.483 3.17-1.887.739-4.04 1.108-6.461 1.108-4 0-7.13-.818-9.392-2.454-2.25-1.637-3.505-3.796-3.767-6.477h9.341c.125.829.534 1.471 1.227 1.926.705.443 1.591.664 2.66.664.863 0 1.573-.147 2.13-.443.568-.295.858-.716.87-1.261-.012-.5-.262-.898-.75-1.193-.478-.296-1.228-.535-2.25-.716l-4.637-.819c-2.67-.465-4.67-1.352-6-2.658-1.329-1.307-1.988-2.99-1.977-5.046-.011-1.818.466-3.358 1.432-4.62.977-1.272 2.369-2.238 4.176-2.897 1.818-.67 3.971-1.006 6.46-1.006 3.784 0 6.767.784 8.949 2.353 2.193 1.568 3.347 3.738 3.46 6.51Z"/>
  <path fill="#000" fill-rule="evenodd" d="M40 18c-12.15 0-22 9.85-22 22v36c0 12.15 9.85 22 22 22h36c12.15 0 22-9.85 22-22V40c0-12.15-9.85-22-22-22H40Zm7.137 43.172a16.936 16.936 0 0 0 8.955-4.127l7.63 5.671A12.983 12.983 0 0 0 63 67c0 7.18 5.82 13 13 13s13-5.82 13-13-5.82-13-13-13a12.99 12.99 0 0 0-10.94 5.973l-6.895-5.126a16.928 16.928 0 0 0 3.63-11.176l10.426-.92a7 7 0 1 0-.11-3.002l-10.694.944c-1.666-7.641-8.47-13.363-16.61-13.363-9.389 0-17 7.612-17 17 0 9.166 7.253 16.637 16.333 16.988l.156 5.802C38.476 67.947 34 72.951 34 79c0 6.627 5.373 12 12 12s12-5.373 12-12c0-6.19-4.686-11.285-10.704-11.93l-.159-5.898Z" clip-rule="evenodd"/>
</svg>
