<svg width="92" height="92" viewBox="0 0 92 92" fill="none" xmlns="http://www.w3.org/2000/svg">
<rect width="92" height="92" fill="black"/>
<rect x="13" y="13" width="66" height="66" fill="black"/>
<path fill-rule="evenodd" clip-rule="evenodd" d="M28 6C15.8497 6 6 15.8497 6 28V64C6 76.1503 15.8497 86 28 86H64C76.1503 86 86 76.1503 86 64V28C86 15.8497 76.1503 6 64 6H28ZM35.137 49.1721C38.5489 48.7044 41.6382 47.2244 44.0921 45.0447L51.7223 50.7162C51.2544 52.0576 51 53.4991 51 55C51 62.1797 56.8203 68 64 68C71.1797 68 77 62.1797 77 55C77 47.8203 71.1797 42 64 42C59.409 42 55.3738 44.3798 53.0609 47.9732L46.1646 42.8472C48.4458 39.9537 49.8071 36.301 49.8071 32.3304C49.8071 32.1096 49.8029 31.8898 49.7945 31.671L60.2208 30.751C60.9982 33.7697 63.7387 36 67 36C70.866 36 74 32.866 74 29C74 25.134 70.866 22 67 22C63.561 22 60.7012 24.4799 60.1115 27.749L49.417 28.6927C47.7513 21.0518 40.9473 15.3304 32.8071 15.3304C23.4183 15.3304 15.8071 22.9416 15.8071 32.3304C15.8071 41.4958 23.0603 48.9671 32.1398 49.3176L32.2962 55.12C26.4757 55.9473 22 60.951 22 67C22 73.6274 27.3726 79 34 79C40.6274 79 46 73.6274 46 67C46 60.8104 41.3138 55.7154 35.2959 55.0692L35.137 49.1721Z" fill="white"/>
</svg>
