<svg width="80" height="80" viewBox="0 0 80 80" fill="none" xmlns="http://www.w3.org/2000/svg">
<g clip-path="url(#clip0_2001_2)">
<rect x="7" y="7" width="66" height="66" fill="white"/>
<path fill-rule="evenodd" clip-rule="evenodd" d="M22 0C9.84974 0 0 9.84973 0 22V58C0 70.1503 9.84973 80 22 80H58C70.1503 80 80 70.1503 80 58V22C80 9.84974 70.1503 0 58 0H22ZM29.137 43.1721C32.5489 42.7044 35.6382 41.2244 38.0921 39.0447L45.7223 44.7162C45.2544 46.0576 45 47.4991 45 49C45 56.1797 50.8203 62 58 62C65.1797 62 71 56.1797 71 49C71 41.8203 65.1797 36 58 36C53.409 36 49.3738 38.3798 47.0609 41.9732L40.1646 36.8472C42.4458 33.9537 43.8071 30.301 43.8071 26.3304C43.8071 26.1096 43.8029 25.8898 43.7945 25.671L54.2208 24.751C54.9982 27.7697 57.7387 30 61 30C64.866 30 68 26.866 68 23C68 19.134 64.866 16 61 16C57.561 16 54.7012 18.4799 54.1115 21.749L43.417 22.6927C41.7513 15.0518 34.9473 9.33041 26.8071 9.33041C17.4183 9.33041 9.8071 16.9416 9.8071 26.3304C9.8071 35.4958 17.0603 42.9671 26.1398 43.3176L26.2962 49.12C20.4757 49.9473 16 54.951 16 61C16 67.6274 21.3726 73 28 73C34.6274 73 40 67.6274 40 61C40 54.8104 35.3138 49.7154 29.2959 49.0692L29.137 43.1721Z" fill="black"/>
</g>
<defs>
<clipPath id="clip0_2001_2">
<rect width="80" height="80" fill="white"/>
</clipPath>
</defs>
</svg>
